<svg id="Layer_1" data-name="Layer 1" xmlns="http://www.w3.org/2000/svg" viewBox="0 0 526.78 45.604"><defs><style>.cls-1{fill:#1e3f3e;}.cls-2{fill:#244e4e;}.cls-3{fill:#2a5f5e;}.cls-4{fill:#837134;}.cls-5{fill:#ed821c;}.cls-6{fill:#ef9d25;}.cls-7{fill:#f1b930;}</style></defs><path d="M74.14,33.28a3.189,3.189,0,0,0-.42-.03,1.4,1.4,0,0,0-1.39.91L55.42,72.04,38.46,34.16a1.39,1.39,0,0,0-1.38-.91,3.189,3.189,0,0,0-.42.03,1.366,1.366,0,0,0-1.29,1.44V76.06a1.367,1.367,0,0,0,.48,1.05,1.653,1.653,0,0,0,1.13.41,1.635,1.635,0,0,0,1.13-.41,1.367,1.367,0,0,0,.48-1.05V42.16L53.93,76.5a1.475,1.475,0,0,0,1.49.9,1.447,1.447,0,0,0,1.45-.9L72.21,42.16v33.9a1.367,1.367,0,0,0,.48,1.05,1.708,1.708,0,0,0,1.13.41,1.653,1.653,0,0,0,1.13-.41,1.367,1.367,0,0,0,.48-1.05V34.72A1.366,1.366,0,0,0,74.14,33.28Z" transform="translate(-35.37 -33.25)"/><path class="cls-1" d="M180.75,35.28v-.09a1.271,1.271,0,0,0-.45-.97,1.533,1.533,0,0,0-1.1-.44h-.09a1.648,1.648,0,0,0-1.07.38L154.55,54.58a1.368,1.368,0,0,0-.51,1.06,1.279,1.279,0,0,0,.51,1.05l23.49,20.42a1.613,1.613,0,0,0,1.1.41,1.516,1.516,0,0,0,1.16-.47,1.251,1.251,0,0,0,.45-.96v-.06a1.312,1.312,0,0,0-.48-1.03l-22.3-19.36,22.3-19.34A1.337,1.337,0,0,0,180.75,35.28Zm-27.97-1.59a1.671,1.671,0,0,0-2.26,0,1.312,1.312,0,0,0-.48,1.03V76.06a1.337,1.337,0,0,0,.48,1.02,1.671,1.671,0,0,0,2.26,0,1.337,1.337,0,0,0,.48-1.02V34.72A1.312,1.312,0,0,0,152.78,33.69Z" transform="translate(-35.37 -33.25)"/><path class="cls-2" d="M225.6,75.03a1.367,1.367,0,0,1,0,2.08,1.708,1.708,0,0,1-1.13.41H199.75a1.653,1.653,0,0,1-1.13-.41,1.367,1.367,0,0,1-.48-1.05V36.35a.915.915,0,0,1,.01-.17h-.01V34.72a1.312,1.312,0,0,1,.48-1.03,1.587,1.587,0,0,1,1.13-.44h24.72a1.639,1.639,0,0,1,1.13.44,1.312,1.312,0,0,1,.48,1.03,1.279,1.279,0,0,1-.48,1.02,1.594,1.594,0,0,1-1.13.44H201.35a.41.41,0,0,1,.01.11V53.11a1.131,1.131,0,0,0,1.12,1.15h18.77a1.6,1.6,0,0,1,1.13.47,1.675,1.675,0,0,1,.45,1.16,1.745,1.745,0,0,1-.45,1.21,1.6,1.6,0,0,1-1.13.47H202.48a1.138,1.138,0,0,0-1.12,1.15V74.59h23.11A1.639,1.639,0,0,1,225.6,75.03Z" transform="translate(-35.37 -33.25)"/><path class="cls-3" d="M321.7,33.28a3.165,3.165,0,0,0-.41-.03,1.4,1.4,0,0,0-1.39.91L302.98,72.04,286.03,34.16a1.4,1.4,0,0,0-1.39-.91,3.165,3.165,0,0,0-.41.03,1.366,1.366,0,0,0-1.29,1.44V76.06a1.367,1.367,0,0,0,.48,1.05,1.635,1.635,0,0,0,1.13.41,1.653,1.653,0,0,0,1.13-.41,1.367,1.367,0,0,0,.48-1.05V42.16L301.5,76.5a1.462,1.462,0,0,0,1.48.9,1.439,1.439,0,0,0,1.45-.9l15.34-34.34v33.9a1.367,1.367,0,0,0,.48,1.05,1.727,1.727,0,0,0,1.13.41,1.635,1.635,0,0,0,1.13-.41,1.367,1.367,0,0,0,.48-1.05V34.72A1.366,1.366,0,0,0,321.7,33.28Z" transform="translate(-35.37 -33.25)"/><path class="cls-4" d="M372.03,34.25a1.5,1.5,0,0,0-.81-.85,1.7,1.7,0,0,0-.67-.15,1.627,1.627,0,0,0-.55.09,1.594,1.594,0,0,0-.94.73L356.14,58.33,343.22,34.07a1.594,1.594,0,0,0-.94-.73,1.611,1.611,0,0,0-.54-.09,1.709,1.709,0,0,0-.68.15,1.5,1.5,0,0,0-.81.85,1.386,1.386,0,0,0-.09.5,1.323,1.323,0,0,0,.16.61l14.21,26.66V76.06a1.314,1.314,0,0,0,.45,1.02,1.632,1.632,0,0,0,1.16.44,1.594,1.594,0,0,0,1.13-.44,1.279,1.279,0,0,0,.48-1.02V62.02l14.21-26.66a1.323,1.323,0,0,0,.16-.61A1.386,1.386,0,0,0,372.03,34.25Z" transform="translate(-35.37 -33.25)"/><path class="cls-5" d="M430.54,37h-2.16a.534.534,0,0,0-.53.53V72.79a.534.534,0,0,0,.53.53h2.16a.534.534,0,0,0,.53-.53V37.53A.534.534,0,0,0,430.54,37Zm27.48,2.76a24.577,24.577,0,0,0-17.18-6.51H429.46a1.587,1.587,0,0,0-1.13.44,1.312,1.312,0,0,0-.48,1.03v.93a.534.534,0,0,0,.53.53h12.46a21.416,21.416,0,0,1,14.92,5.63,17.991,17.991,0,0,1,0,27.16,21.407,21.407,0,0,1-14.92,5.62H428.38a.534.534,0,0,0-.53.53v.94a1.337,1.337,0,0,0,.48,1.02,1.545,1.545,0,0,0,1.13.44h11.38a24.614,24.614,0,0,0,17.18-6.5,20.659,20.659,0,0,0,0-31.26Z" transform="translate(-35.37 -33.25)"/><path class="cls-6" d="M519.94,75.5,501.67,34.16a1.4,1.4,0,0,0-.61-.64,1.542,1.542,0,0,0-.9-.27,1.45,1.45,0,0,0-.87.27,1.42,1.42,0,0,0-.62.64L480.4,75.5a1.212,1.212,0,0,0-.13.56,1.357,1.357,0,0,0,.13.58,1.377,1.377,0,0,0,.87.76,1.865,1.865,0,0,0,.65.12,1.617,1.617,0,0,0,.61-.12,1.4,1.4,0,0,0,.84-.79l6.12-13.82,1.29-2.91L499.6,39.917a.618.618,0,0,1,1.13,0l8.46,19.1a.618.618,0,0,1-.565.868h-16.14a.616.616,0,0,0-.564.366l-.749,1.674a.618.618,0,0,0,.564.87h18.716a.618.618,0,0,1,.565.367L516.98,76.61a1.356,1.356,0,0,0,.58.68,1.882,1.882,0,0,0,.9.23,1.58,1.58,0,0,0,.61-.12,1.377,1.377,0,0,0,.87-.76,1.357,1.357,0,0,0,.13-.58A1.212,1.212,0,0,0,519.94,75.5Z" transform="translate(-35.37 -33.25)"/><path class="cls-7" d="M562.05,34.25a1.5,1.5,0,0,0-.81-.85,1.7,1.7,0,0,0-.67-.15,1.627,1.627,0,0,0-.55.09,1.594,1.594,0,0,0-.94.73L546.16,58.33,533.24,34.07a1.565,1.565,0,0,0-.94-.73,1.611,1.611,0,0,0-.54-.09,1.746,1.746,0,0,0-.68.15,1.5,1.5,0,0,0-.81.85,1.386,1.386,0,0,0-.09.5,1.323,1.323,0,0,0,.16.61l14.21,26.66V76.06a1.314,1.314,0,0,0,.45,1.02,1.632,1.632,0,0,0,1.16.44,1.594,1.594,0,0,0,1.13-.44,1.279,1.279,0,0,0,.48-1.02V62.02l14.22-26.66a1.46,1.46,0,0,0,.16-.61A1.393,1.393,0,0,0,562.05,34.25Z" transform="translate(-35.37 -33.25)"/><path d="M136.377,78.854a.5.5,0,0,1-.5-.5V65.531h-4.224a.5.5,0,0,1-.5-.5V62.318h-3.374a.5.5,0,0,1-.5-.5V60.335h-.728a.5.5,0,0,1-.5-.5v-.823H124.6v.917a.5.5,0,0,1-.5.5h-.445v1.862a.5.5,0,0,1-.5.5h-.54V78.354a.5.5,0,0,1-.5.5h-1.228a.5.5,0,0,1-.5-.5V74.79h-1.3a.5.5,0,0,1-.5-.5V49.434h-.823a.5.5,0,0,1-.5-.5V45.5h-.728a.5.5,0,0,1-.5-.5V41.154H115.4a.5.5,0,0,1-.5-.5V36.147h-.134v4.318a.5.5,0,0,1-.5.5h-.728v3.847a.5.5,0,0,1-.5.5h-.351V48.55a.5.5,0,0,1-.5.5h-.35V70.983a.5.5,0,0,1-.5.5h-.35V74.2a.5.5,0,0,1-.5.5h-.445v3.658a.5.5,0,0,1-.5.5h-1.039a.5.5,0,0,1-.5-.5V63.769h-1.862a.5.5,0,0,1-.5-.5V61.94H105.1a.5.5,0,0,1-.5-.5v-.727H103.43v.444a.5.5,0,0,1-.5.5h-.445v2.335a.5.5,0,0,1-.5.5h-.444V78.354a.5.5,0,0,1-.5.5H98.679a.5.5,0,0,1-.5-.5V58.539h-.823a.5.5,0,0,1-.5-.5V53.815H94.238a.5.5,0,0,1-.5-.5V51.39h-2.5v1.642a.5.5,0,0,1-.5.5H90.3V78.354a.5.5,0,1,1-1,0V53.032a.5.5,0,0,1,.5-.5h.445V50.89a.5.5,0,0,1,.5-.5h3.5a.5.5,0,0,1,.5.5v1.925h2.618a.5.5,0,0,1,.5.5v4.224h.823a.5.5,0,0,1,.5.5V77.854h1.362V63.992a.5.5,0,0,1,.5-.5h.444V61.157a.5.5,0,0,1,.5-.5h.445v-.444a.5.5,0,0,1,.5-.5H105.1a.5.5,0,0,1,.5.5v.727h.539a.5.5,0,0,1,.5.5v1.329h1.862a.5.5,0,0,1,.5.5l.039,14.585V74.2a.5.5,0,0,1,.5-.5h.445V70.983a.5.5,0,0,1,.5-.5h.35V48.55a.5.5,0,0,1,.5-.5h.35V44.812a.5.5,0,0,1,.5-.5h.351V40.465a.5.5,0,0,1,.5-.5h.728V35.647a.5.5,0,0,1,.5-.5H115.4a.5.5,0,0,1,.5.5v4.507h.634a.5.5,0,0,1,.5.5V44.5h.728a.5.5,0,0,1,.5.5v3.434h.823a.5.5,0,0,1,.5.5V73.79h1.3a.5.5,0,0,1,.5.5v3.564h.228V62.291a.5.5,0,0,1,.5-.5h.54V59.929a.5.5,0,0,1,.5-.5h.445v-.917a.5.5,0,0,1,.5-.5h2.456a.5.5,0,0,1,.5.5v.823h.728a.5.5,0,0,1,.5.5v1.483h3.374a.5.5,0,0,1,.5.5v2.713h4.224a.5.5,0,0,1,.5.5V78.354A.5.5,0,0,1,136.377,78.854Z" transform="translate(-35.37 -33.25)"/></svg>